<svg width="44" height="44" viewBox="0 0 44 44" fill="none" xmlns="http://www.w3.org/2000/svg">
    <path d="M18.6887 2.87692H18.9307L10.8246 12.518C10.8124 12.5329 10.797 12.5448 10.7794 12.553C10.7619 12.5612 10.7426 12.5654 10.723 12.5654H2.9418C2.89208 12.5654 2.84369 12.5493 2.80399 12.5194C2.76428 12.4894 2.73543 12.4474 2.7218 12.3995L0.00226052 2.98692C-0.000132339 2.97904 -0.000634012 2.9707 0.000796147 2.96258C0.00222631 2.95447 0.00554808 2.9468 0.0104923 2.94021C0.0154366 2.93362 0.0218642 2.92828 0.0292545 2.92464C0.0366448 2.92099 0.0447898 2.91914 0.0530298 2.91923L18.6887 2.87692Z" fill="#FFF200"/>
    <path d="M43.6925 2.87692H43.8194C43.8126 2.89385 43.8166 2.90908 43.8313 2.92261C43.8392 2.93051 43.8392 2.93897 43.8313 2.948L11.6639 41.0182C11.6165 41.0746 11.5821 41.0678 11.5607 40.9978L7.57188 28.0703C7.55157 28.0049 7.57583 27.9722 7.64465 27.9722L15.8557 27.962C15.9155 27.962 15.9646 27.9394 16.003 27.8943L30.8411 10.2029C30.8544 10.1874 30.863 10.1684 30.8658 10.1482C30.8686 10.128 30.8655 10.1074 30.857 10.0889C30.8484 10.0703 30.8347 10.0546 30.8175 10.0437C30.8003 10.0327 30.7803 10.0269 30.7599 10.0269H21.3151C21.3027 10.027 21.2905 10.0236 21.2801 10.0169C21.2696 10.0103 21.2612 10.0008 21.256 9.98951C21.2509 9.97824 21.249 9.96571 21.2508 9.95343C21.2526 9.94115 21.2579 9.92965 21.266 9.92031L27.162 2.98523C27.1981 2.94236 27.2444 2.92092 27.3008 2.92092L43.6925 2.87692Z" fill="#FFF200"/>
    <path d="M9.99881 25.2154H6.74112C6.7283 25.2153 6.71584 25.2111 6.7055 25.2035C6.69517 25.196 6.6875 25.1853 6.68358 25.1731L3.61205 15.3949C3.60912 15.3858 3.60839 15.3762 3.60989 15.3667C3.61139 15.3573 3.61509 15.3483 3.62069 15.3406C3.62629 15.3329 3.63364 15.3265 3.64213 15.3222C3.65062 15.3178 3.66003 15.3155 3.66958 15.3154H18.1524C18.164 15.3153 18.1754 15.3185 18.1852 15.3247C18.1951 15.3308 18.2029 15.3397 18.2079 15.3502C18.2129 15.3607 18.2148 15.3724 18.2133 15.3839C18.2119 15.3954 18.2072 15.4063 18.1997 15.4152L10.0462 25.1934C10.0404 25.2003 10.0332 25.2059 10.025 25.2097C10.0168 25.2135 10.0079 25.2155 9.99881 25.2154Z" fill="#FFF200"/>
</svg>
